<svg xmlns="http://www.w3.org/2000/svg" width="400" height="400" viewBox="0 0 400 400">
  <rect width="400" height="400" fill="#DBEAFE" rx="8"/>
  <rect x="120" y="110" width="160" height="180" rx="12" fill="#2563EB" opacity="0.2"/>
  <rect x="135" y="125" width="130" height="130" rx="6" fill="white"/>
  <rect x="135" y="125" width="130" height="40" rx="6" fill="#2563EB"/>
  <circle cx="155" cy="145" r="4" fill="white" opacity="0.8"/>
  <circle cx="170" cy="145" r="4" fill="white" opacity="0.8"/>
  <circle cx="185" cy="145" r="4" fill="white" opacity="0.8"/>
  <rect x="145" y="265" width="110" height="12" rx="3" fill="#1E3A5F"/>
  <rect x="160" y="277" width="80" height="8" rx="3" fill="#93C5FD"/>
  <rect x="165" y="180" width="70" height="50" rx="4" fill="#DBEAFE"/>
  <rect x="175" y="190" width="50" height="30" rx="3" fill="#2563EB" opacity="0.15"/>
  <circle cx="200" cy="205" r="10" fill="#2563EB" opacity="0.3"/>
  <circle cx="200" cy="205" r="5" fill="#2563EB"/>
  <line x1="200" y1="195" x2="200" y2="215" stroke="white" stroke-width="1.5"/>
  <line x1="190" y1="205" x2="210" y2="205" stroke="white" stroke-width="1.5"/>
  <rect x="190" y="258" width="20" height="7" rx="2" fill="#2563EB"/>
</svg>