<svg xmlns="http://www.w3.org/2000/svg" width="400" height="400" viewBox="0 0 400 400">
  <rect width="400" height="400" fill="#D1FAE5" rx="8"/>
  <path d="M120 140 L125 290 Q126 310 145 310 L255 310 Q274 310 275 290 L280 140Z" fill="#10B981" opacity="0.2"/>
  <path d="M130 150 L270 150 L265 285 Q264 300 250 300 L150 300 Q136 300 135 285Z" fill="#10B981" opacity="0.35"/>
  <path d="M110 130 Q120 110 140 120 L150 150" fill="none" stroke="#10B981" stroke-width="4" stroke-linecap="round"/>
  <path d="M290 130 Q280 110 260 120 L250 150" fill="none" stroke="#10B981" stroke-width="4" stroke-linecap="round"/>
  <path d="M130 150 L140 230 Q145 260 200 260 Q255 260 260 230 L270 150" fill="none" stroke="#10B981" stroke-width="3" stroke-linecap="round"/>
  <line x1="155" y1="180" x2="245" y2="180" stroke="#10B981" stroke-width="2" opacity="0.5"/>
  <line x1="160" y1="200" x2="240" y2="200" stroke="#10B981" stroke-width="2" opacity="0.5"/>
  <line x1="165" y1="220" x2="235" y2="220" stroke="#10B981" stroke-width="2" opacity="0.5"/>
  <circle cx="200" cy="270" r="8" fill="#10B981" opacity="0.3"/>
</svg>