<svg xmlns="http://www.w3.org/2000/svg" width="400" height="400" viewBox="0 0 400 400">
  <rect width="400" height="400" fill="#F3E8FF" rx="8"/>
  <path d="M160 130 L150 250 L250 250 L240 130Z" fill="#D946EF" opacity="0.3"/>
  <path d="M180 120 Q200 100 220 120 L240 140 L160 140Z" fill="#D946EF"/>
  <path d="M170 135 L160 250 L240 250 L230 135" fill="none" stroke="#D946EF" stroke-width="3"/>
  <line x1="175" y1="180" x2="225" y2="180" stroke="#D946EF" stroke-width="2"/>
  <line x1="173" y1="200" x2="227" y2="200" stroke="#D946EF" stroke-width="2"/>
  <line x1="170" y1="220" x2="230" y2="220" stroke="#D946EF" stroke-width="2"/>
  <circle cx="190" cy="115" r="15" fill="#D946EF" opacity="0.2"/>
  <circle cx="190" cy="115" r="8" fill="#D946EF"/>
  <circle cx="210" cy="115" r="15" fill="#D946EF" opacity="0.2"/>
  <circle cx="210" cy="115" r="8" fill="#D946EF"/>
  <path d="M185 150 Q200 165 215 150" fill="none" stroke="#D946EF" stroke-width="2"/>
</svg>