<svg xmlns="http://www.w3.org/2000/svg" width="400" height="400" viewBox="0 0 400 400">
  <rect width="400" height="400" fill="#FCE7F3" rx="8"/>
  <rect x="150" y="100" width="100" height="200" rx="20" fill="#EC4899" opacity="0.25"/>
  <rect x="160" y="110" width="80" height="160" rx="15" fill="#EC4899"/>
  <rect x="170" y="120" width="60" height="120" rx="10" fill="#F472B6"/>
  <rect x="175" y="125" width="50" height="40" rx="8" fill="#FCE7F3"/>
  <rect x="180" y="175" width="40" height="20" rx="5" fill="white" opacity="0.3"/>
  <rect x="180" y="200" width="40" height="20" rx="5" fill="white" opacity="0.3"/>
  <rect x="180" y="225" width="40" height="10" rx="3" fill="white" opacity="0.2"/>
  <rect x="155" y="270" width="90" height="12" rx="6" fill="#BE185D" opacity="0.5"/>
  <rect x="170" y="282" width="60" height="8" rx="4" fill="#BE185D" opacity="0.3"/>
  <circle cx="200" cy="300" r="15" fill="#EC4899" opacity="0.15"/>
  <circle cx="200" cy="300" r="8" fill="#EC4899" opacity="0.3"/>
  <line x1="160" y1="310" x2="240" y2="310" stroke="#EC4899" stroke-width="2" stroke-dasharray="4 2" opacity="0.5"/>
</svg>