<svg xmlns="http://www.w3.org/2000/svg" width="400" height="400" viewBox="0 0 400 400">
  <rect width="400" height="400" fill="#E0F2FE" rx="8"/>
  <circle cx="200" cy="200" r="80" fill="#0EA5E9" opacity="0.15"/>
  <circle cx="200" cy="200" r="65" fill="none" stroke="#0EA5E9" stroke-width="4" stroke-dasharray="10 6"/>
  <circle cx="200" cy="200" r="45" fill="#0EA5E9" opacity="0.2"/>
  <circle cx="200" cy="200" r="25" fill="#0EA5E9" opacity="0.35"/>
  <circle cx="200" cy="200" r="10" fill="#0EA5E9"/>
  <path d="M160 140 Q180 160 180 200 Q180 240 160 260" fill="none" stroke="#0EA5E9" stroke-width="3" stroke-linecap="round" opacity="0.6"/>
  <path d="M240 140 Q220 160 220 200 Q220 240 240 260" fill="none" stroke="#0EA5E9" stroke-width="3" stroke-linecap="round" opacity="0.6"/>
  <path d="M140 160 Q160 180 200 180 Q240 180 260 160" fill="none" stroke="#0EA5E9" stroke-width="3" stroke-linecap="round" opacity="0.6"/>
  <path d="M140 240 Q160 220 200 220 Q240 220 260 240" fill="none" stroke="#0EA5E9" stroke-width="3" stroke-linecap="round" opacity="0.6"/>
  <line x1="200" y1="120" x2="200" y2="280" stroke="#0EA5E9" stroke-width="1.5" opacity="0.4"/>
  <line x1="120" y1="200" x2="280" y2="200" stroke="#0EA5E9" stroke-width="1.5" opacity="0.4"/>
</svg>