<svg xmlns="http://www.w3.org/2000/svg" width="400" height="400" viewBox="0 0 400 400">
  <rect width="400" height="400" fill="#FEF3C7" rx="8"/>
  <ellipse cx="200" cy="140" rx="50" ry="55" fill="#FCD34D"/>
  <circle cx="185" cy="125" r="6" fill="#1E3A5F"/>
  <circle cx="215" cy="125" r="6" fill="#1E3A5F"/>
  <path d="M190 145 Q200 155 210 145" fill="none" stroke="#B45309" stroke-width="2.5" stroke-linecap="round"/>
  <path d="M180 155 Q200 170 220 155" fill="none" stroke="#F59E0B" stroke-width="4" stroke-linecap="round"/>
  <ellipse cx="200" cy="165" rx="55" ry="30" fill="#F59E0B"/>
  <rect x="160" y="165" width="80" height="12" rx="6" fill="#B45309"/>
  <rect x="120" y="155" width="160" height="8" rx="4" fill="#F59E0B" opacity="0.5" transform="rotate(-5 200 159)"/>
  <path d="M120 195 Q100 230 110 330" fill="none" stroke="#F59E0B" stroke-width="6" stroke-linecap="round"/>
  <path d="M280 195 Q300 230 290 330" fill="none" stroke="#F59E0B" stroke-width="6" stroke-linecap="round"/>
  <path d="M140 200 L120 320" fill="none" stroke="#FCD34D" stroke-width="8" stroke-linecap="round"/>
  <path d="M260 200 L280 320" fill="none" stroke="#FCD34D" stroke-width="8" stroke-linecap="round"/>
  <rect x="150" y="190" width="100" height="30" rx="8" fill="#F59E0B" opacity="0.3"/>
  <circle cx="170" cy="210" r="5" fill="#F59E0B" opacity="0.5"/>
  <circle cx="200" cy="215" r="4" fill="#F59E0B" opacity="0.5"/>
  <circle cx="230" cy="210" r="5" fill="#F59E0B" opacity="0.5"/>
</svg>