<svg xmlns="http://www.w3.org/2000/svg" width="400" height="400" viewBox="0 0 400 400">
  <rect width="400" height="400" fill="#DBEAFE" rx="8"/>
  <rect x="60" y="160" width="280" height="130" rx="15" fill="#6B7280"/>
  <rect x="65" y="170" width="65" height="55" rx="8" fill="#4B5563"/>
  <rect x="168" y="170" width="64" height="55" rx="8" fill="#4B5563"/>
  <rect x="270" y="170" width="65" height="55" rx="8" fill="#4B5563"/>
  <rect x="50" y="270" width="300" height="45" rx="8" fill="#4B5563"/>
  <rect x="50" y="280" width="300" height="35" rx="6" fill="#374151"/>
  <rect x="70" y="145" width="45" height="60" rx="8" fill="#4B5563"/>
  <rect x="285" y="145" width="45" height="60" rx="8" fill="#4B5563"/>
  <rect x="75" y="150" width="35" height="20" rx="5" fill="#6B7280"/>
  <rect x="290" y="150" width="35" height="20" rx="5" fill="#6B7280"/>
  <circle cx="130" cy="165" r="5" fill="#2563EB"/>
  <circle cx="200" cy="165" r="5" fill="#2563EB"/>
  <circle cx="270" cy="165" r="5" fill="#2563EB"/>
  <rect x="175" y="140" width="50" height="25" rx="8" fill="#6B7280"/>
  <rect x="180" y="145" width="40" height="15" rx="5" fill="#9CA3AF"/>
  <circle cx="155" cy="165" r="4" fill="#3B82F6"/>
  <circle cx="245" cy="165" r="4" fill="#3B82F6"/>
  <rect x="93" y="270" width="8" height="20" rx="4" fill="#9CA3AF"/>
  <rect x="187" y="270" width="8" height="20" rx="4" fill="#9CA3AF"/>
  <rect x="297" y="270" width="10" height="20" rx="4" fill="#9CA3AF"/>
  <path d="M80 200 Q85 195 95 200" fill="none" stroke="white" stroke-width="1" opacity="0.2"/>
  <path d="M305 200 Q310 195 320 200" fill="none" stroke="white" stroke-width="1" opacity="0.2"/>
</svg>